<!DOCTYPE svg PUBLIC "-//W3C//DTD SVG 1.1//EN" "http://www.w3.org/Graphics/SVG/1.1/DTD/svg11.dtd">

<!-- Uploaded to: SVG Repo, www.svgrepo.com, Transformed by: SVG Repo Mixer Tools -->
<svg version="1.1" id="Layer_1" xmlns="http://www.w3.org/2000/svg" xmlns:xlink="http://www.w3.org/1999/xlink" viewBox="0 0 512 512" xml:space="preserve" width="40px" height="40px" fill="#000000">

<g id="SVGRepo_bgCarrier" stroke-width="0"/>

<g id="SVGRepo_tracerCarrier" stroke-linecap="round" stroke-linejoin="round"/>

<g id="SVGRepo_iconCarrier"> <path style="fill:#0d0afd;" d="M486.881,414.196H59.324c-9.446,0-17.102-7.656-17.102-17.102V132.008 c0-9.446,7.656-17.102,17.102-17.102h427.557c9.446,0,17.102,7.656,17.102,17.102v265.086 C503.983,406.539,496.326,414.196,486.881,414.196z"/> <rect x="247.449" y="379.992" style="fill:#0d0afd;" width="51.307" height="34.205"/> <path style="fill:#3772fb;" d="M290.205,97.804c-9.445,0-17.102,7.656-17.102,17.102c0-9.446-7.658-17.102-17.102-17.102H76.426 v282.188H256c9.445,0,17.102,7.656,17.102,17.102c0-9.446,7.658-17.102,17.102-17.102h179.574V97.804H290.205z"/> <path style="fill:#0d0afd;" d="M93.528,311.582H25.119c-9.446,0-17.102,7.656-17.102,17.102v119.716H110.63V328.685 C110.63,319.239,102.974,311.582,93.528,311.582z"/> <path style="fill:#5B5D6E;" d="M110.63,448.401H8.017v17.102c0,9.446,7.656,17.102,17.102,17.102h68.409 c9.446,0,17.102-7.656,17.102-17.102V448.401z"/> <path style="fill:#FFDC64;" d="M341.511,285.929l-17.102,42.756l-17.102-42.756V37.946c0-4.722,3.829-8.551,8.551-8.551h17.102 c4.722,0,8.551,3.829,8.551,8.551V285.929z"/> <g> <path style="fill:#FAEBC8;" d="M332.96,29.395h-17.102c-4.722,0-8.551,3.829-8.551,8.551v25.653h34.205V37.946 C341.511,33.223,337.683,29.395,332.96,29.395z"/> <polygon style="fill:#FAEBC8;" points="307.307,277.378 307.307,285.929 324.409,328.685 341.511,285.929 341.511,277.378 "/> </g> <path d="M486.881,106.889h-9.086v-9.086c0-4.427-3.589-8.017-8.017-8.017H349.528V37.946c0-9.136-7.432-16.568-16.568-16.568 h-17.102c-9.136,0-16.568,7.432-16.568,16.568v51.841h-9.086c-6.603,0-12.614,2.564-17.102,6.745 c-4.488-4.18-10.5-6.745-17.102-6.745H76.426c-4.427,0-8.017,3.589-8.017,8.017v9.086h-9.086c-13.851,0-25.119,11.268-25.119,25.119 v171.557h-9.086C11.268,303.566,0,314.834,0,328.685v136.818c0,13.851,11.268,25.119,25.119,25.119h68.409 c13.851,0,25.119-11.268,25.119-25.119v-43.29h146.438v0.534c0,4.427,3.589,8.017,8.017,8.017c4.427,0,8.017-3.589,8.017-8.017 v-0.534h205.762c13.851,0,25.119-11.268,25.119-25.119V132.008C512,118.158,500.732,106.889,486.881,106.889z M333.495,269.361 h-18.171V71.616h18.171V269.361z M333.091,285.395l-8.682,21.705l-8.682-21.705H333.091z M315.858,37.411h17.102 c0.295,0,0.534,0.239,0.534,0.534v17.637h-18.171V37.946C315.324,37.651,315.563,37.411,315.858,37.411z M290.205,105.82h9.086 v180.109c0,1.02,0.195,2.03,0.574,2.978l17.102,42.756c1.217,3.043,4.164,5.039,7.443,5.039c3.278,0,6.226-1.996,7.443-5.039 l17.102-42.756c0.378-0.947,0.574-1.958,0.574-2.978V105.82h112.234v266.154H290.205c-3.202,0-6.267,0.602-9.086,1.7v-19.336 V114.906C281.119,109.896,285.195,105.82,290.205,105.82z M256,105.82c5.01,0,9.086,4.076,9.086,9.086v239.432v19.336 c-2.819-1.098-5.883-1.7-9.086-1.7H118.647v-43.29c0-13.851-11.268-25.119-25.119-25.119h-9.086V105.82H256z M50.238,132.008 c0-5.01,4.076-9.086,9.086-9.086h9.086v180.643H50.238V132.008z M25.119,319.599h68.409c5.01,0,9.086,4.076,9.086,9.086v111.699 h-86.58V328.685C16.033,323.675,20.109,319.599,25.119,319.599z M93.528,474.589H25.119c-5.01,0-9.086-4.076-9.086-9.086v-9.086 h86.58v9.086C102.614,470.513,98.538,474.589,93.528,474.589z M118.647,388.008H256c5.01,0,9.086,4.076,9.086,9.086v9.086H118.647 V388.008z M495.967,397.094c0,5.01-4.076,9.086-9.086,9.086H281.119v-9.086c0-5.01,4.076-9.086,9.086-9.086h179.574 c4.427,0,8.017-3.589,8.017-8.017V122.923h9.086c5.01,0,9.086,4.076,9.086,9.086V397.094z"/> <path d="M42.221,422.213h34.205c4.427,0,8.017-3.589,8.017-8.017c0-4.427-3.589-8.017-8.017-8.017H42.221 c-4.427,0-8.017,3.589-8.017,8.017C34.205,418.624,37.794,422.213,42.221,422.213z"/> <path d="M42.221,388.008h34.205c4.427,0,8.017-3.589,8.017-8.017c0-4.427-3.589-8.017-8.017-8.017H42.221 c-4.427,0-8.017,3.589-8.017,8.017C34.205,384.419,37.794,388.008,42.221,388.008z"/> <path d="M42.221,353.804h34.205c4.427,0,8.017-3.589,8.017-8.017c0-4.427-3.589-8.017-8.017-8.017H42.221 c-4.427,0-8.017,3.589-8.017,8.017C34.205,350.214,37.794,353.804,42.221,353.804z"/> <path d="M59.366,457.486h-0.086c-4.427,0-7.974,3.589-7.974,8.017s3.632,8.017,8.059,8.017s8.017-3.589,8.017-8.017 S63.794,457.486,59.366,457.486z"/> <path d="M119.182,148.576h111.165c4.427,0,8.017-3.589,8.017-8.017c0-4.427-3.589-8.017-8.017-8.017H119.182 c-4.427,0-8.017,3.589-8.017,8.017C111.165,144.987,114.754,148.576,119.182,148.576z"/> <path d="M230.347,166.747h-51.309c-4.427,0-8.017,3.589-8.017,8.017s3.589,8.017,8.017,8.017h51.309 c4.427,0,8.017-3.589,8.017-8.017S234.774,166.747,230.347,166.747z"/> <path d="M119.182,182.781h25.652c4.427,0,8.017-3.589,8.017-8.017s-3.589-8.017-8.017-8.017h-25.652 c-4.427,0-8.017,3.589-8.017,8.017S114.754,182.781,119.182,182.781z"/> <path d="M119.182,216.985h42.756c4.427,0,8.017-3.589,8.017-8.017s-3.589-8.017-8.017-8.017h-42.756 c-4.427,0-8.017,3.589-8.017,8.017S114.754,216.985,119.182,216.985z"/> </g>

</svg>